<?xml version="1.0" standalone="no"?><!DOCTYPE svg PUBLIC "-//W3C//DTD SVG 1.1//EN" "http://www.w3.org/Graphics/SVG/1.1/DTD/svg11.dtd"><svg t="1745500165724" class="icon" viewBox="0 0 1024 1024" version="1.1" xmlns="http://www.w3.org/2000/svg" p-id="8954" xmlns:xlink="http://www.w3.org/1999/xlink" width="32" height="32"><path d="M518.2 932.8c-184.5 0-351.2-122.6-403.4-306.3C54 412.6 183.4 179.1 397.4 116.6c109.1-31.9 223-19.2 321.1 35.2 98.1 54.4 169 144.4 199.6 253.4 14.2 50.5 4.7 103.2-26.2 144.4-30.8 41.2-78.5 65.2-131 65.8-15.2 0.2-30.2 0.1-45.3 0.1l-19.8-0.1v0.1h-20c-14.9 0-29.6 0-44.5 0.1-44.2 0.5-79.3 28.1-87.4 68.8-7.9 39.6 14.3 77.3 55.3 93.8 42.9 17.2 52.3 48.5 52.7 71.8 0.5 40.2-25 70.5-64.9 77.1-23 3.9-46 5.7-68.8 5.7z m-1.5-778.4c-34.6 0-69.5 4.9-103.9 15C227.3 223.6 115 426 167.7 611.4c51 179.5 227.4 291.7 410.4 261.4 13.1-2.2 19.1-9.2 19-22.1-0.1-8.1-1.6-14.8-18.2-21.5-65.3-26.3-101.8-90.3-88.7-155.6 13-65.7 70.9-112.2 140.7-113 15.2-0.2 30.3-0.1 45.3-0.1h45.7l38.5-0.2c35.2-0.4 67.1-16.4 87.6-43.8s26.8-62.6 17.2-96.6C838.6 325.1 777 247 691.9 199.7c-54.4-30-114.4-45.3-175.2-45.3z" p-id="8955" fill="#2c2c2c"></path><path d="M345.1 738.7c33.4-0.3 61.3-28.8 61.1-62.7-0.2-33.5-28.5-61.6-62.3-61.6-33.7 0.1-61.8 28.2-61.9 61.9 0 34.5 28.4 62.7 63.1 62.4m405.8-408.4c-0.4-33.5-28.8-61.4-62.5-61.2-34.3 0.2-62.4 29.4-61.5 63.9 0.8 33.5 29.8 61.2 63.4 60.5 33.6-0.7 61-29.2 60.6-63.2m-234-132.7c-34 0.1-61.9 27.4-62.3 61.3-0.4 34.8 27.6 63.1 62.3 63 33.7-0.2 61.5-28.2 61.5-62.1 0.1-33.8-28.1-62.2-61.5-62.2m-244 368.3c33.8 0 62-28.2 61.9-61.8-0.1-33.7-28.1-62.2-61.5-62.3-34.3-0.2-63 28.6-62.8 62.8 0.4 33.6 28.6 61.3 62.4 61.3m71.9-296.8c-34.3-0.3-62.7 28.3-62.7 62.8 0 32.9 27.5 60.8 60.5 61.5 34.4 0.8 63.6-27.6 63.6-61.9-0.1-33.9-27.9-62.2-61.4-62.4" p-id="8956" fill="#2c2c2c"></path></svg>