<?xml version="1.0" standalone="no"?><!DOCTYPE svg PUBLIC "-//W3C//DTD SVG 1.1//EN" "http://www.w3.org/Graphics/SVG/1.1/DTD/svg11.dtd"><svg t="1745907919953" class="icon" viewBox="0 0 1024 1024" version="1.1" xmlns="http://www.w3.org/2000/svg" p-id="70218" xmlns:xlink="http://www.w3.org/1999/xlink" width="32" height="32"><path d="M854.275 65.186H173.624c-59.328 0-107.474 48.112-107.474 107.472V853.31c0 59.327 48.146 107.472 107.474 107.472h680.65c59.4 0 107.473-48.146 107.473-107.472V172.658c0-59.36-48.073-107.472-107.472-107.472zM908.01 853.31c0 29.63-24.072 53.736-53.736 53.736H173.624c-29.593 0-53.74-24.107-53.74-53.736V172.658c0-29.63 24.147-53.737 53.74-53.737h680.65c29.664 0 53.737 24.108 53.737 53.737V853.31z m0 0" fill="#2c2c2c" p-id="70219"></path><path d="M775.33 251.765H381.293v65.324H775.33v-65.324z m0 228.554H381.293v65.324H775.33V480.32z m0 228.64H381.293v65.279H775.33v-65.28z m-459.277 0h-63.485v65.279h63.485v-65.28z m0-228.64h-63.485v65.324h63.485V480.32z m0-228.554h-63.485v65.324h63.485v-65.324z m0 0" fill="#2c2c2c" p-id="70220"></path></svg>