<?xml version="1.0" standalone="no"?><!DOCTYPE svg PUBLIC "-//W3C//DTD SVG 1.1//EN" "http://www.w3.org/Graphics/SVG/1.1/DTD/svg11.dtd"><svg t="1745409424229" class="icon" viewBox="0 0 1024 1024" version="1.1" xmlns="http://www.w3.org/2000/svg" p-id="13613" xmlns:xlink="http://www.w3.org/1999/xlink" width="32" height="32"><path d="M341.353412 926.117647a30.117647 30.117647 0 0 1-5.421177-59.753412l5.421177-0.481882H481.882353V158.057412H200.764235v75.113412a30.117647 30.117647 0 0 1-24.69647 29.635764l-5.421177 0.481883a30.117647 30.117647 0 0 1-29.575529-24.696471l-0.542118-5.421176V128a30.117647 30.117647 0 0 1 24.696471-29.635765l5.421176-0.481882h682.646588a30.117647 30.117647 0 0 1 29.635765 24.696471l0.481883 5.421176v105.231059a30.117647 30.117647 0 0 1-59.693177 5.421176l-0.542118-5.421176V158.117647H542.057412v707.764706h140.649412a30.117647 30.117647 0 0 1 5.421176 59.753412l-5.421176 0.481882H341.353412z" fill="#2c2c2c" p-id="13614"></path></svg>